<svg width="1080" height="1080" viewBox="0 0 1080 1080" fill="none" xmlns="http://www.w3.org/2000/svg">
<rect width="1080" height="1080" rx="540" fill="#121214"/>
<g filter="url(#filter0_di_3_7)">
<path d="M389.834 229.71V222.71H384.166L382.987 228.254L389.834 229.71ZM762.461 257.682L758.237 263.264L758.321 263.327L758.407 263.388L762.461 257.682ZM820.403 328.611L814.03 331.508L820.403 328.611ZM819.404 518.421L812.991 515.615L812.966 515.672L812.943 515.729L819.404 518.421ZM763.46 606.333L768.604 611.081L768.634 611.049L768.663 611.016L763.46 606.333ZM680.543 669.27L683.62 675.557L683.673 675.531L683.726 675.504L680.543 669.27ZM403.82 692.247V685.247H398.14L396.97 690.805L403.82 692.247ZM351.872 939V946H357.552L358.722 940.442L351.872 939ZM238.985 939L232.138 937.544L230.34 946H238.985V939ZM643.58 580.359L646.914 586.514L647.011 586.461L647.107 586.405L643.58 580.359ZM685.538 544.395L690.956 548.828L691.004 548.769L691.051 548.709L685.538 544.395ZM713.51 492.447L706.965 489.964L706.927 490.064L706.892 490.165L713.51 492.447ZM713.51 377.562L707.091 380.353L707.165 380.525L707.249 380.692L713.51 377.562ZM685.538 341.598L689.636 335.923L685.538 341.598ZM481.742 328.611V321.611H476.088L474.899 327.139L481.742 328.611ZM424.799 593.346L417.956 591.874L416.133 600.346H424.799V593.346ZM389.834 236.71H673.55V222.71H389.834V236.71ZM673.55 236.71C706.851 236.71 734.957 245.646 758.237 263.264L766.685 252.1C740.681 232.422 709.514 222.71 673.55 222.71V236.71ZM758.407 263.388C782.669 280.628 801.202 303.285 814.03 331.508L826.776 325.714C812.964 295.329 792.869 270.7 766.516 251.976L758.407 263.388ZM814.03 331.508C826.931 359.889 833.383 389.869 833.383 421.518H847.383C847.383 387.899 840.515 355.941 826.776 325.714L814.03 331.508ZM833.383 421.518C833.383 453.121 826.617 484.47 812.991 515.615L825.817 521.227C840.163 488.436 847.383 455.183 847.383 421.518H833.383ZM812.943 515.729C799.937 546.942 781.723 575.577 758.257 601.65L768.663 611.016C793.149 583.809 812.231 553.836 825.866 521.113L812.943 515.729ZM758.316 601.585C734.898 626.955 707.921 647.43 677.36 663.036L683.726 675.504C715.769 659.142 744.07 637.659 768.604 611.081L758.316 601.585ZM677.466 662.982C647.153 677.816 614.577 685.247 579.644 685.247V699.247C616.639 699.247 651.329 691.359 683.62 675.557L677.466 662.982ZM579.644 685.247H403.82V699.247H579.644V685.247ZM396.97 690.805L345.022 937.558L358.722 940.442L410.67 693.689L396.97 690.805ZM351.872 932H238.985V946H351.872V932ZM245.832 940.456L396.681 231.166L382.987 228.254L232.138 937.544L245.832 940.456ZM594.629 600.346C612.548 600.346 630.002 595.674 646.914 586.514L640.246 574.204C625.19 582.359 610.01 586.346 594.629 586.346V600.346ZM647.107 586.405C663.829 576.651 678.451 564.111 690.956 548.828L680.12 539.962C668.649 553.983 655.299 565.419 640.053 574.312L647.107 586.405ZM691.051 548.709C703.541 532.749 713.227 514.74 720.128 494.729L706.892 490.165C700.473 508.782 691.511 525.405 680.025 540.081L691.051 548.709ZM720.055 494.93C727.701 474.773 731.499 453.281 731.499 430.509H717.499C717.499 451.693 713.971 471.493 706.965 489.964L720.055 494.93ZM731.499 430.509C731.499 409.052 727.693 390.275 719.771 374.431L707.249 380.692C713.979 394.153 717.499 410.674 717.499 430.509H731.499ZM719.93 374.771C712.835 358.453 702.77 345.408 689.636 335.923L681.44 347.273C692.282 355.104 700.865 366.035 707.091 380.353L719.93 374.771ZM689.636 335.923C676.411 326.371 661.312 321.611 644.579 321.611V335.611C658.482 335.611 670.689 339.509 681.44 347.273L689.636 335.923ZM644.579 321.611H481.742V335.611H644.579V321.611ZM474.899 327.139L417.956 591.874L431.642 594.818L488.586 330.083L474.899 327.139ZM424.799 600.346H594.629V586.346H424.799V600.346Z" fill="#9264F5"/>
</g>
<defs>
<filter id="filter0_di_3_7" x="177.985" y="167.71" width="761.398" height="869.29" filterUnits="userSpaceOnUse" color-interpolation-filters="sRGB">
<feFlood flood-opacity="0" result="BackgroundImageFix"/>
<feColorMatrix in="SourceAlpha" type="matrix" values="0 0 0 0 0 0 0 0 0 0 0 0 0 0 0 0 0 0 127 0" result="hardAlpha"/>
<feOffset dx="19" dy="18"/>
<feGaussianBlur stdDeviation="40"/>
<feComposite in2="hardAlpha" operator="out"/>
<feColorMatrix type="matrix" values="0 0 0 0 0.572549 0 0 0 0 0.392157 0 0 0 0 0.960784 0 0 0 0.9 0"/>
<feBlend mode="normal" in2="BackgroundImageFix" result="effect1_dropShadow_3_7"/>
<feBlend mode="normal" in="SourceGraphic" in2="effect1_dropShadow_3_7" result="shape"/>
<feColorMatrix in="SourceAlpha" type="matrix" values="0 0 0 0 0 0 0 0 0 0 0 0 0 0 0 0 0 0 127 0" result="hardAlpha"/>
<feOffset dy="4"/>
<feGaussianBlur stdDeviation="3"/>
<feComposite in2="hardAlpha" operator="arithmetic" k2="-1" k3="1"/>
<feColorMatrix type="matrix" values="0 0 0 0 0 0 0 0 0 0 0 0 0 0 0 0 0 0 0.3 0"/>
<feBlend mode="normal" in2="shape" result="effect2_innerShadow_3_7"/>
</filter>
</defs>
</svg>
